<?xml version="1.0" encoding="UTF-8" standalone="no"?>
<svg width="32" height="32" viewBox="0 0 32 32" version="1.1" xmlns="http://www.w3.org/2000/svg">
  <path d="M10.6 22h-1.8v-12h4.2c1.2 0 2.1 0.3 2.8 0.9 0.7 0.6 1 1.4 1 2.4 0 1-0.3 1.8-1 2.4-0.7 0.6-1.6 0.9-2.8 0.9h-2.4v5.4zm0-7.2h2.4c0.7 0 1.2-0.2 1.6-0.5 0.4-0.3 0.6-0.8 0.6-1.4s-0.2-1.1-0.6-1.4c-0.4-0.3-0.9-0.5-1.6-0.5h-2.4v3.8z" fill="#5d3bee"/>
  <path d="M19.2 22h-1.8v-12h1.8v5.4l4.2-5.4h2.1l-4.2 5.4 4.5 6.6h-2.1l-3.6-5.4-0.9 1.2v4.2z" fill="#5d3bee"/>
</svg>
